<svg width="20" height="20" viewBox="0 0 20 20" fill="none" xmlns="http://www.w3.org/2000/svg">
<path fill-rule="evenodd" clip-rule="evenodd" d="M0.850424 19.9871C0.464184 20.0605 0.0893594 19.8142 0.0132529 19.437C-0.0619022 19.0598 0.190201 18.6928 0.576441 18.6194C0.576441 18.6194 7.52877 17.2638 12.4785 9.63857C12.6888 9.31431 13.1302 9.21769 13.4632 9.42395C13.7952 9.62928 13.8941 10.0604 13.6839 10.3856C8.36308 18.5813 0.850424 19.9871 0.850424 19.9871Z" fill="black"/>
<path fill-rule="evenodd" clip-rule="evenodd" d="M7.68479 7.37339C7.86268 7.71624 7.72284 8.1362 7.3718 8.31087C7.02076 8.48461 6.59075 8.34803 6.4119 8.00519C5.98856 7.19036 5.60042 6.32814 5.26745 5.42318C5.13427 5.06082 5.32739 4.66223 5.69841 4.53216C6.06847 4.40208 6.47755 4.59069 6.61073 4.95212C6.92277 5.80133 7.28713 6.60966 7.68479 7.37339Z" fill="black"/>
<path fill-rule="evenodd" clip-rule="evenodd" d="M19.4784 2.4017C19.4784 2.4017 20.3584 5.64524 19.8323 9.266C19.4737 11.7356 18.4624 14.3696 16.1355 16.3115C13.6934 18.35 9.7663 19.6498 3.49988 19.0682C3.1536 19.0356 2.88056 18.7634 2.85583 18.4243C2.85583 18.4243 2.30311 10.8213 7.82844 5.90725C10.1839 3.81117 13.6449 2.18893 18.745 1.88325C19.0846 1.86281 19.3919 2.08022 19.4784 2.4017ZM18.2255 3.31873C13.8694 3.68388 10.8594 5.09613 8.78928 6.93764C4.64909 10.6197 4.26951 15.9658 4.26475 17.733C9.63121 18.1307 13.0589 17.0464 15.2089 15.2523C17.2457 13.552 18.1047 11.2329 18.4196 9.06996C18.7773 6.60873 18.431 4.33612 18.2255 3.31873Z" fill="black"/>
<path fill-rule="evenodd" clip-rule="evenodd" d="M10.9402 4.47177C11.1828 4.77466 11.1286 5.21227 10.8194 5.45012C10.5093 5.68798 10.0603 5.63502 9.81767 5.33213C8.5914 3.80652 6.70111 2.44722 3.84521 1.54134C3.5522 2.21309 3.07654 3.46739 2.85678 4.94933C2.53904 7.09559 2.75404 9.74449 4.99632 11.717C5.28933 11.9744 5.31217 12.4148 5.04865 12.7009C4.78513 12.9871 4.3342 13.0094 4.04119 12.752C1.38412 10.4144 1.06828 7.29442 1.44501 4.74957C1.81032 2.27906 2.82444 0.376228 2.82444 0.376228C2.98045 0.0807693 3.32864 -0.0651018 3.6559 0.0278097C7.20341 1.03032 9.48375 2.65906 10.9402 4.47177Z" fill="black"/>
</svg>
