<svg width="26" height="18" viewBox="0 0 26 18" fill="none" xmlns="http://www.w3.org/2000/svg">
<path d="M0.354414 9.75905C1.89248 11.058 3.6357 12.5303 7.00762 12.5303C10.3796 12.5303 12.123 11.058 13.6611 9.75905C15.1157 8.53065 16.3719 7.4697 18.9921 7.4697C21.6124 7.4697 22.8686 8.53065 24.3231 9.75905C24.7489 10.1186 25.3901 10.0703 25.7552 9.6511C26.1204 9.23185 26.0714 8.60055 25.6456 8.241C24.1074 6.94205 22.3641 5.4697 18.9921 5.4697C15.6201 5.4697 13.8768 6.942 12.3386 8.241C10.8841 9.4694 9.62783 10.5303 7.00762 10.5303C4.38746 10.5303 3.13139 9.46945 1.67691 8.241C1.25116 7.88145 0.609996 7.9297 0.244777 8.34895C-0.120442 8.76815 -0.0713364 9.3995 0.354414 9.75905Z" fill="black"/>
<path d="M0.354414 4.28935C1.89243 5.58835 3.63565 7.06065 7.00762 7.06065C10.3796 7.06065 12.123 5.58835 13.6611 4.28935C15.1157 3.06095 16.3718 2 18.9921 2C21.6123 2 22.8685 3.0609 24.3231 4.28935C24.7489 4.649 25.39 4.60055 25.7552 4.1813C26.1204 3.7621 26.0712 3.1307 25.6455 2.7712C24.1073 1.4722 22.364 0 18.9921 0C15.6201 0 13.8768 1.4723 12.3386 2.7713C10.8841 3.9997 9.62783 5.06065 7.00762 5.06065C4.38751 5.06065 3.13139 3.99975 1.67691 2.7713C1.25116 2.4117 0.609945 2.46 0.244777 2.87925C-0.120442 3.29845 -0.0713364 3.9298 0.354414 4.28935Z" fill="black"/>
<path d="M25.6456 13.7107C24.1074 12.4117 22.3641 10.9393 18.9921 10.9393C15.6201 10.9393 13.8768 12.4117 12.3386 13.7107C10.8841 14.9391 9.62783 16 7.00762 16C4.38761 16 3.13144 14.9391 1.67696 13.7108L1.67686 13.7107C1.25111 13.3512 0.609996 13.3995 0.244777 13.8186C-0.120391 14.2378 -0.0712856 14.8692 0.354464 15.2288C1.89253 16.5278 3.6358 18 7.00762 18C10.3796 18 12.123 16.5277 13.6611 15.2287C15.1157 14.0003 16.3719 12.9393 18.9921 12.9393C21.6124 12.9393 22.8686 14.0003 24.3231 15.2287C24.7489 15.5883 25.3901 15.54 25.7552 15.1208C26.1204 14.7015 26.0714 14.0702 25.6456 13.7107Z" fill="black"/>
</svg>
