<svg width="23" height="23" viewBox="0 0 23 23" fill="none" xmlns="http://www.w3.org/2000/svg">
<path d="M22.4543 4.35207C22.4543 3.62499 21.2617 2.37477 20.9026 2.01566C20.0469 1.14671 18.8277 0.166923 18.2115 0.610265L18.1805 0.632432C18.1361 0.667899 18.1051 0.716667 18.0785 0.765435C17.4223 1.90926 16.6022 2.94668 15.649 3.85996C14.749 4.83088 12.3993 6.36484 12.3993 6.36484C12.3993 6.36484 10.9363 8.76776 9.98307 9.67661C9.7082 9.95148 9.44219 10.2042 9.17175 10.4436C10.5771 7.45546 9.96977 3.90873 7.65996 1.55458C7.47375 1.37281 7.17671 1.37281 6.99051 1.55458C4.84917 3.65602 4.08219 6.79045 5.0132 9.64114C3.98022 9.14016 2.80093 9.04263 1.70144 9.36627C1.45317 9.44164 1.3113 9.70764 1.38667 9.95591V9.96035C2.00291 11.8711 3.78515 13.1701 5.79349 13.1746H6.05062C5.48758 13.9726 4.8536 14.7174 4.15755 15.4046C3.24427 16.3578 2.19798 17.1691 1.05416 17.8252C1.00983 17.8474 0.965493 17.874 0.930025 17.9095C0.810323 18.0292 0.743822 18.1932 0.748255 18.3617C0.748255 19.0888 1.94084 20.339 2.29995 20.6981C3.05807 21.4562 4.00238 22.2498 4.6541 22.2498C4.81813 22.2542 4.9733 22.1921 5.08857 22.0813C5.12404 22.0458 5.15064 22.0059 5.17281 21.9572C5.82895 20.8134 6.64914 19.7671 7.60232 18.8538C8.50674 17.8962 10.9318 16.3267 10.9318 16.3267C10.9318 16.3267 12.386 14.0302 13.3436 13.1214C14.2525 12.1682 16.6509 10.6697 16.6509 10.6697C16.6509 10.6697 18.1361 8.33771 19.0937 7.42443C19.9982 6.44908 21.04 5.61116 22.1883 4.93728C22.237 4.90625 22.3257 4.82201 22.3257 4.82201L22.3789 4.74665C22.4676 4.62694 22.4587 4.49837 22.4543 4.35207ZM7.18997 2.5654C9.40668 5.16782 9.40668 8.99386 7.18997 11.5963C4.97769 8.99386 4.97769 5.16782 7.18997 2.5654ZM4.05997 11.8046C3.35949 11.4411 2.79645 10.8603 2.45064 10.151C4.04667 9.90715 5.62054 10.7318 6.32989 12.1859C5.55404 12.3056 4.75602 12.1726 4.05997 11.8046ZM6.89736 18.1888C5.95305 19.0976 5.124 20.1262 4.43682 21.2434C3.8782 20.9109 3.36836 20.503 2.92502 20.0331C2.45064 19.5897 2.04277 19.0799 1.7147 18.5213C2.84522 17.8518 3.88707 17.0405 4.81809 16.1095C5.6161 15.3248 6.33432 14.4691 6.96386 13.547C7.30524 14.0302 7.69538 14.4736 8.12542 14.8814C8.5466 15.3159 9.00767 15.7061 9.50421 16.043C8.56876 16.6725 7.69538 17.3908 6.89736 18.1888ZM12.683 12.4431C12.6875 12.4475 10.9274 14.3273 10.2579 15.409C9.71706 15.0809 9.22052 14.6819 8.79048 14.2164C8.32497 13.7687 7.93039 13.2632 7.60675 12.7046C8.68408 12.0308 9.67273 11.2327 10.5594 10.3195C11.3308 9.56134 12.0313 8.73229 12.6476 7.84117C12.9845 8.33328 13.3746 8.78992 13.8002 9.20223C14.217 9.63227 14.6692 10.018 15.1613 10.3549C14.2702 10.9712 13.4411 11.6716 12.683 12.4431ZM18.4331 6.71065C18.4287 6.70622 16.6287 8.63032 15.9504 9.74311C15.4007 9.41947 14.8997 9.01159 14.4652 8.54165C13.9864 8.09388 13.5785 7.5796 13.2549 7.00769C14.3677 6.32938 15.3874 5.51363 16.2918 4.57818C17.2361 3.66489 18.0607 2.6319 18.7435 1.50582C19.3109 1.82946 19.8296 2.23733 20.2774 2.71614C20.7562 3.16391 21.1641 3.67819 21.4877 4.2501C20.3661 4.93728 19.342 5.7619 18.4331 6.71065Z" fill="#696B36"/>
</svg>
