<svg width="27" height="22" viewBox="0 0 27 22" fill="none" xmlns="http://www.w3.org/2000/svg">
<path d="M26.2011 13.9322C25.8532 13.0392 24.3934 12.1895 22.6527 11.8662C21.3999 11.6326 18.2191 11.3838 15.7599 14.08C14.1059 15.8937 13.7127 18.2888 14.8038 19.9044C14.8188 19.9266 14.8375 19.9458 14.8529 19.9677C12.7817 20.9895 10.3732 21.2487 8.09509 20.6327C9.283 19.7771 9.63741 18.8977 9.70789 18.2593C9.81584 17.2825 9.32496 16.492 8.87156 16.1115C8.33487 15.6611 7.64194 15.6127 7.08553 15.5743C6.49562 15.5339 6.20532 15.4925 6.09542 15.2885C5.99833 15.1101 6.01854 15.0322 6.17377 14.6803C6.3783 14.2171 6.6873 13.5172 6.29797 12.3157C6.14766 11.8514 6.28713 11.64 6.51827 11.2896C6.75287 10.9343 7.07469 10.4479 6.92042 9.70268C6.84059 9.3163 6.58038 8.78847 5.79628 8.46813C4.64562 7.99754 2.85653 8.18697 1.34707 8.86022C1.58285 7.99796 1.93991 7.16339 2.41943 6.37941C4.3035 3.28792 7.67154 1.64293 11.0563 1.79639C10.9144 2.40871 11.1764 3.04196 11.3855 3.54718C11.5496 3.9449 11.7201 4.35592 11.6664 4.64029C11.6137 4.91774 11.2988 5.15332 10.9651 5.40271C10.5009 5.75064 9.92279 6.18286 9.91342 6.93146C9.90849 7.31835 10.0228 7.63278 10.2525 7.86638C10.6896 8.30994 11.4033 8.31141 12.0932 8.31289C12.4762 8.31387 12.8719 8.31487 13.1942 8.38927C13.4958 8.45531 13.7048 8.72589 13.9483 9.03884C14.2331 9.4055 14.5564 9.82097 15.1025 9.89882C15.2069 9.91362 15.3055 9.92051 15.3982 9.92051C16.2251 9.92051 16.6036 9.36607 16.9131 8.91119C17.0915 8.649 17.2768 8.37793 17.5558 8.16504C17.5558 8.16454 17.5558 8.16454 17.5558 8.16454C17.7589 8.0088 18.1344 7.93044 18.4971 7.85456C18.8037 7.7904 19.1309 7.71953 19.4196 7.58852C19.7472 8.35225 19.9799 9.16262 20.1016 10.0052C20.1426 10.2801 20.3969 10.4728 20.6718 10.4318C20.9466 10.3908 21.1393 10.1365 21.0983 9.8617C20.6472 6.72392 18.8342 3.97582 16.1312 2.32697C11.1354 -0.720547 4.60148 0.862685 1.55396 5.85438C0.0814791 8.27026 -0.365612 11.1168 0.302959 13.869C0.967425 16.6212 2.66551 18.9509 5.08139 20.4276C6.80409 21.4735 8.70723 21.9739 10.5899 21.9739C12.3158 21.9739 14.023 21.55 15.5512 20.7468C16.3901 21.4787 17.501 21.9033 18.6223 21.9033C18.8184 21.9033 19.0146 21.8905 19.2098 21.8639C20.3945 21.7022 22.565 20.8871 23.7921 17.2312C24.349 15.5733 25.1996 15.115 25.657 14.8695C25.9014 14.7385 26.4091 14.4644 26.2011 13.9322ZM18.2901 6.86643C17.8397 6.96106 17.3281 7.06798 16.9427 7.36271C16.5346 7.67467 16.2823 8.04528 16.0793 8.34296C15.7471 8.83136 15.6436 8.95801 15.2444 8.89935C15.1025 8.87915 14.9211 8.64555 14.7457 8.41934C14.444 8.03148 14.0685 7.54802 13.416 7.40459C12.9882 7.30603 12.5343 7.30506 12.0957 7.30356C11.6807 7.30258 11.113 7.3016 10.9715 7.15818C10.9296 7.1153 10.9218 7.01821 10.9227 6.94428C10.9257 6.70971 11.1692 6.51109 11.5698 6.21095C11.9991 5.89011 12.5328 5.49093 12.658 4.82757C12.7674 4.248 12.5284 3.6704 12.318 3.1613C12.0545 2.5247 11.942 2.17635 12.0929 1.90067C13.3022 2.0889 14.4946 2.51173 15.6021 3.18832C17.0294 4.05857 18.1795 5.26766 18.9741 6.68568C18.7888 6.76199 18.5216 6.81839 18.2901 6.86643ZM1.10251 10.1132C2.56082 9.22167 4.47448 9.01666 5.41433 9.40255C5.71397 9.52477 5.88793 9.6943 5.93179 9.90672C5.99833 10.2271 5.89581 10.401 5.67601 10.7337C5.40694 11.1418 5.03781 11.7006 5.33794 12.6272C5.60849 13.462 5.43453 13.8553 5.2507 14.2723C5.07969 14.6596 4.86727 15.1406 5.20734 15.7695C5.59372 16.4831 6.38273 16.5373 7.01603 16.5817C7.49013 16.6142 7.93762 16.6448 8.22299 16.8843C8.4339 17.0617 8.77347 17.5279 8.70498 18.1489C8.62416 18.8801 7.9926 19.5905 6.87388 20.2114C6.44361 20.0295 6.02091 19.8165 5.61049 19.5662C3.42022 18.2291 1.88618 16.1249 1.28325 13.6311C1.00625 12.4873 0.94391 11.3256 1.08438 10.1916C1.0915 10.1654 1.09513 10.1394 1.10251 10.1132ZM22.836 16.9099C22.0544 19.2361 20.7188 20.6397 19.0747 20.8634C18.0789 20.9973 17.0263 20.6629 16.2609 20.0211C17.1674 18.2479 18.2853 16.8719 19.5932 15.94C19.8199 15.7784 19.8731 15.4629 19.7114 15.2362C19.5498 15.0095 19.2344 14.9573 19.0077 15.1179C17.6584 16.0795 16.4992 17.4487 15.5524 19.1933C14.8567 17.9791 15.2389 16.1485 16.5051 14.7602C18.0141 13.1062 19.8475 12.7405 21.1702 12.7405C21.7045 12.7405 22.1559 12.8007 22.4684 12.8588C23.7428 13.0954 24.6822 13.6227 25.0765 14.0357C24.5087 14.3472 23.4787 14.9947 22.836 16.9099Z" fill="#696B36"/>
</svg>
