<svg width="24" height="24" viewBox="0 0 24 24" fill="none" xmlns="http://www.w3.org/2000/svg">
<path d="M21.4332 1.52852C21.4351 1.28305 21.2377 1.08246 20.9922 1.08052C20.9282 1.08002 20.8648 1.09336 20.8064 1.11958C18.0069 2.42253 14.7115 2.03187 12.2942 0.110557C12.1264 -0.0368522 11.8752 -0.0368522 11.7074 0.110557C9.27993 2.00731 5.99883 2.39625 3.19517 1.11958C2.97125 1.0189 2.70816 1.11886 2.60748 1.34272C2.58126 1.40112 2.56792 1.46446 2.56842 1.52852C2.56842 1.62187 2.59954 10.7875 2.56842 13.8235C2.55064 15.4459 6.33782 20.7133 11.7741 23.9404C11.9116 24.0198 12.0811 24.0198 12.2186 23.9404C17.6638 20.7133 21.451 15.4459 21.4332 13.8235C21.4021 10.7875 21.4332 1.62187 21.4332 1.52852ZM20.5442 13.828C20.5442 14.8059 17.4326 19.7176 12.0008 23.0381C6.55118 19.7221 3.44854 14.8103 3.45743 13.8324C3.4841 11.2676 3.46632 4.36446 3.45743 2.18639C6.32487 3.23564 9.52613 2.79258 12.0008 1.00401C14.4755 2.79258 17.6767 3.23564 20.5442 2.18639C20.5442 4.36002 20.5219 11.2676 20.5442 13.828Z" fill="#696B36"/>
<path d="M19.1122 4.23144C19.1142 3.98596 18.9167 3.78538 18.6713 3.78343C18.6073 3.78293 18.5439 3.79627 18.4855 3.8225C16.4535 4.77779 14.056 4.50242 12.2935 3.11129C12.1257 2.96388 11.8746 2.96388 11.7068 3.11129C9.94387 4.48631 7.56272 4.76723 5.52816 3.84028C5.30425 3.7396 5.04116 3.83955 4.94048 4.06342C4.91425 4.12181 4.90091 4.18521 4.90141 4.24922C4.90141 4.3159 4.92364 11.1035 4.90141 13.3527C4.88808 14.5751 7.71513 18.5311 11.7734 20.9403C11.911 21.0197 12.0804 21.0197 12.218 20.9403C16.2852 18.5311 19.1122 14.5751 19.1122 13.3349C19.09 11.0857 19.1122 4.30256 19.1122 4.23144ZM18.2232 13.3349C18.2232 13.9616 16.0007 17.5755 12.0001 20.0024C8.03072 17.5621 5.77709 13.9483 5.77709 13.3349C5.8082 11.5213 5.77709 6.66732 5.77709 4.88931C7.87226 5.62618 10.1951 5.29436 12.0001 4.0003C13.8052 5.29436 16.128 5.62618 18.2232 4.88931V13.3349Z" fill="#696B36"/>
</svg>
